<svg width="120" height="120" viewBox="0 0 120 120" xmlns="http://www.w3.org/2000/svg">
  <!-- Atlanta Falcons "F" Logo -->
  <defs>
    <linearGradient id="falconsGrad" x1="0%" y1="0%" x2="100%" y2="100%">
      <stop offset="0%" style="stop-color:#A71930;stop-opacity:1" />
      <stop offset="50%" style="stop-color:#CC2340;stop-opacity:1" />
      <stop offset="100%" style="stop-color:#A71930;stop-opacity:1" />
    </linearGradient>
    <filter id="falconsShadow" x="-50%" y="-50%" width="200%" height="200%">
      <feDropShadow dx="3" dy="3" stdDeviation="2" flood-color="#000" flood-opacity="0.8"/>
    </filter>
  </defs>
  
  <!-- Background circle -->
  <circle cx="60" cy="60" r="58" fill="#000" stroke="#A5ACAF" stroke-width="2"/>
  
  <!-- Inner highlight -->
  <circle cx="60" cy="60" r="55" fill="none" stroke="url(#falconsGrad)" stroke-width="1" opacity="0.3"/>
  
  <!-- Main "F" letter -->
  <path d="M 30 30 
           L 30 90 
           L 40 90 
           L 40 65 
           L 75 65 
           L 75 55 
           L 40 55 
           L 40 40 
           L 85 40 
           L 85 30 
           Z" 
        fill="url(#falconsGrad)" 
        filter="url(#falconsShadow)" 
        stroke="#A5ACAF" 
        stroke-width="1"/>
  
  <!-- Inner F highlight -->
  <path d="M 32 32 
           L 32 88 
           L 38 88 
           L 38 67 
           L 73 67 
           L 73 57 
           L 38 57 
           L 38 38 
           L 83 38 
           L 83 32 
           Z" 
        fill="none" 
        stroke="rgba(165,172,175,0.6)" 
        stroke-width="1"/>
  
  <!-- Decorative elements -->
  <path d="M 85 35 L 90 30 L 90 35 Z" fill="#A5ACAF" opacity="0.8"/>
  <path d="M 75 60 L 80 55 L 80 60 Z" fill="#A5ACAF" opacity="0.8"/>
</svg>